<svg width="16" height="16" viewBox="0 0 16 16" fill="none" xmlns="http://www.w3.org/2000/svg">
  <path
    d="M3.35975 7.04363L6.91884 2.39573C7.09068 2.20676 7.30959 2.07808 7.5479 2.02596C7.78622 1.97383 8.03323 2.00059 8.25771 2.10287C8.4822 2.20514 8.67408 2.37834 8.80909 2.60055C8.94411 2.82277 9.0162 3.08403 9.01625 3.35131V5.09826C9.01625 5.09826 13.4613 5.09837 13.7713 5.09826C14.0813 5.09815 14.3798 5.22694 14.6071 5.4588C14.8344 5.69066 14.9737 6.00846 14.9969 6.34849L15 6.44986V9.6484C15 10.0069 14.8705 10.3507 14.6401 10.6041C14.4097 10.8576 14.0972 11 13.7713 11H9.01626L9.01625 12.6482C9.0162 12.8971 8.95371 13.141 8.83566 13.3533C8.71761 13.5655 8.54859 13.7378 8.34722 13.8512L8.25814 13.8971C8.03356 13.9994 7.78644 14.0262 7.54804 13.974C7.30964 13.9218 7.09067 13.793 6.91884 13.6038L3.35975 8.9548C3.1294 8.70134 3 8.35761 3 7.99922C3 7.64082 3.1294 7.2971 3.35975 7.04363Z"
    fill="currentColor" fill-opacity="0.25" />
  <path
    d="M9.0166 3.35156C9.01653 2.99543 8.92025 2.64352 8.73633 2.34082C8.55221 2.03783 8.28564 1.79361 7.96484 1.64746C7.64341 1.50108 7.28633 1.46175 6.94141 1.5371C6.6399 1.60306 6.36506 1.75306 6.1416 1.96484L6.04883 2.05957L6.02148 2.09179L2.46484 6.7373C2.16331 7.0838 2.00005 7.53575 2 7.99902C2 8.46133 2.1626 8.91254 2.46289 9.25878L6.02148 13.9082C6.02998 13.9193 6.03943 13.9301 6.04883 13.9404C6.28692 14.2024 6.59678 14.3874 6.94141 14.4629C7.28657 14.5384 7.64418 14.4991 7.96582 14.3525C7.9731 14.3492 7.98019 14.3455 7.9873 14.3418L8.07617 14.2959C8.08156 14.2931 8.08749 14.2901 8.09277 14.2871C8.37863 14.1262 8.61196 13.8851 8.77246 13.5967C8.93286 13.3083 9.01652 12.9801 9.0166 12.6484V11.5H13.2715C13.746 11.4999 14.1901 11.292 14.5098 10.9404C14.828 10.5903 15 10.1249 15 9.64843V6.43457L14.9971 6.333L14.9961 6.31445C14.9652 5.862 14.7789 5.4298 14.4639 5.10839C14.1476 4.78596 13.7225 4.59857 13.2715 4.59863H9.0166V3.35156ZM8.0166 5.09863C8.01678 5.33992 8.18755 5.54111 8.41504 5.58789L8.5166 5.59863H13.2715C13.4401 5.59858 13.6118 5.66773 13.75 5.80859C13.8895 5.95091 13.9825 6.15519 13.998 6.38281L14 6.46484V9.64843C14 9.88869 13.9129 10.1107 13.7705 10.2676C13.6294 10.4228 13.4485 10.4999 13.2715 10.5H8.5166C8.24046 10.5 8.0166 10.7239 8.0166 11V12.6484C8.01652 12.8143 7.97407 12.9744 7.89844 13.1103C7.82289 13.2461 7.71822 13.3494 7.60156 13.415L7.54883 13.4424C7.42201 13.4997 7.28611 13.514 7.15527 13.4853C7.02574 13.457 6.90026 13.3857 6.7959 13.2734L3.25684 8.65039C3.24836 8.63932 3.23887 8.62847 3.22949 8.61816C3.08713 8.46133 3 8.23923 3 7.99902C3.00005 7.75878 3.08705 7.53668 3.22949 7.37988C3.23893 7.3695 3.24831 7.35879 3.25684 7.34765L6.7959 2.72558C6.90005 2.61379 7.02516 2.543 7.1543 2.51464C7.28576 2.48589 7.42345 2.4996 7.55078 2.55761C7.67884 2.61601 7.79597 2.71903 7.88184 2.86035C7.96789 3.00204 8.01657 3.17319 8.0166 3.35156V5.09863Z"
    fill="currentColor" />
</svg>