<svg width="16" height="16" viewBox="0 0 16 16" fill="none" xmlns="http://www.w3.org/2000/svg">
  <path
    d="M6.39067 2.66667L2 7.05734C1.75004 7.30738 1.60962 7.64645 1.60962 8.00001C1.60962 8.35356 1.75004 8.69264 2 8.94267L6.39067 13.3333C6.57713 13.5199 6.81474 13.647 7.07344 13.6985C7.33214 13.75 7.6003 13.7236 7.844 13.6227L7.94067 13.5773C8.15918 13.4655 8.3426 13.2956 8.4707 13.0862C8.5988 12.8768 8.66661 12.6361 8.66667 12.3907V10.6667H13.3333C13.687 10.6667 14.0261 10.5262 14.2761 10.2761C14.5262 10.0261 14.6667 9.68696 14.6667 9.33334V6.66667L14.6633 6.56667C14.6381 6.23124 14.487 5.91773 14.2404 5.689C13.9937 5.46028 13.6697 5.33323 13.3333 5.33334L8.66667 5.33267V3.60934C8.66661 3.34567 8.58838 3.08794 8.44187 2.86873C8.29536 2.64952 8.08714 2.47866 7.84354 2.37777C7.59994 2.27688 7.3319 2.25047 7.07329 2.3019C6.81469 2.35332 6.57714 2.48026 6.39067 2.66667Z"
    fill="currentColor" />
</svg>