<svg width="16" height="16" viewBox="0 0 16 16" fill="none" xmlns="http://www.w3.org/2000/svg">
  <path
    d="M13.6403 7.04363L10.0812 2.39573C9.90932 2.20676 9.69041 2.07808 9.4521 2.02596C9.21378 1.97383 8.96677 2.00059 8.74229 2.10287C8.5178 2.20514 8.32592 2.37834 8.19091 2.60055C8.05589 2.82277 7.9838 3.08403 7.98375 3.35131V5.09826C7.98375 5.09826 3.5387 5.09837 3.22871 5.09826C2.91872 5.09815 2.62015 5.22694 2.39285 5.4588C2.16555 5.69066 2.02632 6.00846 2.00307 6.34849L2 6.44986V9.6484C2 10.0069 2.12945 10.3507 2.35988 10.6041C2.59031 10.8576 2.90284 11 3.22871 11H7.98374L7.98375 12.6482C7.9838 12.8971 8.04629 13.141 8.16434 13.3533C8.28239 13.5655 8.45141 13.7378 8.65278 13.8512L8.74186 13.8971C8.96644 13.9994 9.21356 14.0262 9.45196 13.974C9.69036 13.9218 9.90933 13.793 10.0812 13.6038L13.6403 8.9548C13.8706 8.70134 14 8.35761 14 7.99922C14 7.64082 13.8706 7.2971 13.6403 7.04363Z"
    fill="currentColor" fill-opacity="0.25" />
  <path
    d="M7.4834 3.35156C7.48347 2.99543 7.57975 2.64352 7.76367 2.34082C7.94779 2.03783 8.21436 1.79361 8.53516 1.64746C8.85659 1.50108 9.21367 1.46175 9.55859 1.5371C9.8601 1.60306 10.1349 1.75306 10.3584 1.96484L10.4512 2.05957L10.4785 2.09179L14.0352 6.7373C14.3367 7.0838 14.5 7.53575 14.5 7.99902C14.5 8.46133 14.3374 8.91254 14.0371 9.25878L10.4785 13.9082C10.47 13.9193 10.4606 13.9301 10.4512 13.9404C10.2131 14.2024 9.90322 14.3874 9.55859 14.4629C9.21343 14.5384 8.85582 14.4991 8.53418 14.3525C8.5269 14.3492 8.51981 14.3455 8.5127 14.3418L8.42383 14.2959C8.41844 14.2931 8.41251 14.2901 8.40723 14.2871C8.12137 14.1262 7.88804 13.8851 7.72754 13.5967C7.56714 13.3083 7.48348 12.9801 7.4834 12.6484V11.5H3.22852C2.75396 11.4999 2.30989 11.292 1.99023 10.9404C1.67198 10.5903 1.50001 10.1249 1.5 9.64843V6.43457L1.50293 6.333L1.50391 6.31445C1.53484 5.862 1.72105 5.4298 2.03613 5.10839C2.35241 4.78596 2.77748 4.59857 3.22852 4.59863H7.4834V3.35156ZM8.4834 5.09863C8.48322 5.33992 8.31245 5.54111 8.08496 5.58789L7.9834 5.59863H3.22852C3.05995 5.59858 2.88817 5.66773 2.75 5.80859C2.61048 5.95091 2.51752 6.15519 2.50195 6.38281L2.5 6.46484V9.64843C2.50001 9.88869 2.58707 10.1107 2.72949 10.2676C2.87059 10.4228 3.05153 10.4999 3.22852 10.5H7.9834C8.25954 10.5 8.4834 10.7239 8.4834 11V12.6484C8.48348 12.8143 8.52593 12.9744 8.60156 13.1103C8.67711 13.2461 8.78178 13.3494 8.89844 13.415L8.95117 13.4424C9.07799 13.4997 9.21389 13.514 9.34473 13.4853C9.47426 13.457 9.59974 13.3857 9.7041 13.2734L13.2432 8.65039C13.2516 8.63932 13.2611 8.62847 13.2705 8.61816C13.4129 8.46133 13.5 8.23923 13.5 7.99902C13.5 7.75878 13.4129 7.53668 13.2705 7.37988C13.2611 7.3695 13.2517 7.35879 13.2432 7.34765L9.7041 2.72558C9.59995 2.61379 9.47484 2.543 9.3457 2.51464C9.21424 2.48589 9.07655 2.4996 8.94922 2.55761C8.82116 2.61601 8.70403 2.71903 8.61816 2.86035C8.53211 3.00204 8.48343 3.17319 8.4834 3.35156V5.09863Z"
    fill="currentColor" />
</svg>