<svg width="16" height="16" viewBox="0 0 16 16" fill="none" xmlns="http://www.w3.org/2000/svg">
  <path
    d="M9.88562 2.66667L14.2763 7.05734C14.5262 7.30738 14.6667 7.64645 14.6667 8.00001C14.6667 8.35356 14.5262 8.69264 14.2763 8.94267L9.88562 13.3333C9.69916 13.5199 9.46155 13.647 9.20285 13.6985C8.94415 13.75 8.67599 13.7236 8.43229 13.6227L8.33562 13.5773C8.1171 13.4655 7.93369 13.2956 7.80559 13.0862C7.67749 12.8768 7.60968 12.6361 7.60962 12.3907V10.6667H2.94295C2.58933 10.6667 2.25019 10.5262 2.00014 10.2761C1.7501 10.0261 1.60962 9.68696 1.60962 9.33334V6.66667L1.61295 6.56667C1.63818 6.23124 1.78927 5.91773 2.03592 5.689C2.28257 5.46028 2.60657 5.33323 2.94295 5.33334L7.60962 5.33267V3.60934C7.60968 3.34567 7.6879 3.08794 7.83442 2.86873C7.98093 2.64952 8.18915 2.47866 8.43275 2.37777C8.67635 2.27688 8.94439 2.25047 9.20299 2.3019C9.4616 2.35332 9.69915 2.48026 9.88562 2.66667Z"
    fill="currentColor" />
</svg>