<svg width="16" height="16" viewBox="0 0 16 16" fill="none" xmlns="http://www.w3.org/2000/svg">
  <path
    d="M3.05719 3.72385C2.80714 3.9739 2.66667 4.31304 2.66667 4.66666V7.5H13.3333V4.66666C13.3333 4.31304 13.1929 3.9739 12.9428 3.72385C12.6928 3.4738 12.3536 3.33333 12 3.33333H4C3.64638 3.33333 3.30724 3.4738 3.05719 3.72385Z"
    fill="currentColor" fill-opacity="0.25" />
  <path fill-rule="evenodd" clip-rule="evenodd"
    d="M5.33333 1.5C5.60948 1.5 5.83333 1.72386 5.83333 2V2.83333H10.1667V2C10.1667 1.72386 10.3905 1.5 10.6667 1.5C10.9428 1.5 11.1667 1.72386 11.1667 2V2.83333H12C12.4862 2.83333 12.9525 3.02648 13.2964 3.3703C13.6402 3.71412 13.8333 4.18043 13.8333 4.66666V7.33162L13.8333 7.33333L13.8333 7.33504V12.6667C13.8333 13.1529 13.6402 13.6192 13.2964 13.963C12.9525 14.3068 12.4862 14.5 12 14.5H4C3.51377 14.5 3.04745 14.3068 2.70363 13.963C2.35982 13.6192 2.16666 13.1529 2.16666 12.6667V4.66666C2.16666 4.18043 2.35982 3.71412 2.70363 3.3703C3.04745 3.02648 3.51377 2.83333 4 2.83333H4.83333V2C4.83333 1.72386 5.05719 1.5 5.33333 1.5ZM4.83333 3.83333H4C3.77898 3.83333 3.56702 3.92113 3.41074 4.07741C3.25446 4.23369 3.16666 4.44565 3.16666 4.66666V6.83333H12.8333V4.66666C12.8333 4.44565 12.7455 4.23369 12.5893 4.07741C12.433 3.92113 12.221 3.83333 12 3.83333H11.1667V4.66667C11.1667 4.94281 10.9428 5.16667 10.6667 5.16667C10.3905 5.16667 10.1667 4.94281 10.1667 4.66667V3.83333H5.83333V4.66667C5.83333 4.94281 5.60948 5.16667 5.33333 5.16667C5.05719 5.16667 4.83333 4.94281 4.83333 4.66667V3.83333ZM12.8333 7.83333H3.16666V12.6667C3.16666 12.8877 3.25446 13.0996 3.41074 13.2559C3.56702 13.4122 3.77898 13.5 4 13.5H12C12.221 13.5 12.433 13.4122 12.5893 13.2559C12.7455 13.0996 12.8333 12.8877 12.8333 12.6667V7.83333ZM4.16667 9.33333C4.16667 9.05719 4.39052 8.83333 4.66667 8.83333H4.67533C4.95148 8.83333 5.17533 9.05719 5.17533 9.33333C5.17533 9.60948 4.95148 9.83333 4.67533 9.83333H4.66667C4.39052 9.83333 4.16667 9.60948 4.16667 9.33333ZM6.17333 9.33333C6.17333 9.05719 6.39719 8.83333 6.67333 8.83333H6.67667C6.95281 8.83333 7.17667 9.05719 7.17667 9.33333C7.17667 9.60948 6.95281 9.83333 6.67667 9.83333H6.67333C6.39719 9.83333 6.17333 9.60948 6.17333 9.33333ZM8.17333 9.33333C8.17333 9.05719 8.39719 8.83333 8.67333 8.83333H8.67667C8.95281 8.83333 9.17667 9.05719 9.17667 9.33333C9.17667 9.60948 8.95281 9.83333 8.67667 9.83333H8.67333C8.39719 9.83333 8.17333 9.60948 8.17333 9.33333ZM10.1767 9.33333C10.1767 9.05719 10.4005 8.83333 10.6767 8.83333H10.68C10.9561 8.83333 11.18 9.05719 11.18 9.33333C11.18 9.60948 10.9561 9.83333 10.68 9.83333H10.6767C10.4005 9.83333 10.1767 9.60948 10.1767 9.33333ZM4.17333 11.3333C4.17333 11.0572 4.39719 10.8333 4.67333 10.8333H4.67667C4.95281 10.8333 5.17667 11.0572 5.17667 11.3333C5.17667 11.6095 4.95281 11.8333 4.67667 11.8333H4.67333C4.39719 11.8333 4.17333 11.6095 4.17333 11.3333ZM6.17333 11.3333C6.17333 11.0572 6.39719 10.8333 6.67333 10.8333H6.67667C6.95281 10.8333 7.17667 11.0572 7.17667 11.3333C7.17667 11.6095 6.95281 11.8333 6.67667 11.8333H6.67333C6.39719 11.8333 6.17333 11.6095 6.17333 11.3333ZM8.17667 11.3333C8.17667 11.0572 8.40052 10.8333 8.67667 10.8333H8.68C8.95614 10.8333 9.18 11.0572 9.18 11.3333C9.18 11.6095 8.95614 11.8333 8.68 11.8333H8.67667C8.40052 11.8333 8.17667 11.6095 8.17667 11.3333Z"
    fill="currentColor" />
</svg>