<svg width="16" height="16" viewBox="0 0 16 16" fill="none" xmlns="http://www.w3.org/2000/svg">
  <path fill-rule="evenodd" clip-rule="evenodd"
    d="M2.58579 2.58579C3.36683 1.80474 4.63317 1.80474 5.41421 2.58579L8 5.17157L10.5858 2.58579C11.3668 1.80474 12.6332 1.80474 13.4142 2.58579C14.1953 3.36683 14.1953 4.63317 13.4142 5.41421L10.8284 8L13.4142 10.5858C14.1953 11.3668 14.1953 12.6332 13.4142 13.4142C12.6332 14.1953 11.3668 14.1953 10.5858 13.4142L8 10.8284L5.41421 13.4142C4.63317 14.1953 3.36683 14.1953 2.58579 13.4142C1.80474 12.6332 1.80474 11.3668 2.58579 10.5858L5.17157 8L2.58579 5.41421C1.80474 4.63317 1.80474 3.36683 2.58579 2.58579Z"
    fill="currentColor" />
</svg>