<svg width="16" height="16" viewBox="0 0 16 16" fill="none" xmlns="http://www.w3.org/2000/svg">
  <path
    d="M3 8.05378C7.4861 12.2616 11.5486 12.6143 14.6667 8.00133C11.5486 3.39195 7.4861 3.74557 3 7.95306V8.05378Z"
    fill="currentColor" fill-opacity="0.25" />
  <path fill-rule="evenodd" clip-rule="evenodd"
    d="M11.453 4.58118C11.6622 4.76141 11.6857 5.07712 11.5055 5.28634C10.8556 6.04072 10.4987 7.00366 10.5 7.99936C10.5 9.03965 10.8806 9.99062 11.5111 10.7205C11.6916 10.9295 11.6685 11.2452 11.4595 11.4257C11.2505 11.6062 10.9348 11.5831 10.7543 11.3742C9.9728 10.4695 9.50008 9.28925 9.5 8.00033C9.4985 6.76474 9.9414 5.5698 10.7478 4.63366C10.9281 4.42445 11.2438 4.40095 11.453 4.58118Z"
    fill="currentColor" />
  <path fill-rule="evenodd" clip-rule="evenodd"
    d="M8.54087 4.23996C11.0395 3.85891 13.2577 5.02607 15.0808 7.72118C15.1952 7.89035 15.1953 8.11212 15.0809 8.28134C13.2579 10.9784 11.0398 12.1469 8.54099 11.7665C6.73673 11.4918 4.86182 10.417 2.95359 8.69087C2.54331 9.0941 2.12744 9.53171 1.7064 10.0036C1.52255 10.2096 1.20648 10.2276 1.00044 10.0437C0.794397 9.85988 0.776411 9.54381 0.960265 9.33777C1.38344 8.86353 1.80564 8.41821 2.22645 8.0034C1.80563 7.58855 1.38343 7.14318 0.960246 6.66887C0.776404 6.46282 0.794408 6.14675 1.00046 5.96291C1.20651 5.77907 1.52258 5.79707 1.70642 6.00312C2.12747 6.47504 2.54334 6.91269 2.95361 7.31596C4.86183 5.58993 6.73669 4.51511 8.54087 4.23996ZM3.68458 8.00343C5.48197 9.61642 7.1633 10.5452 8.69151 10.7779C10.6211 11.0716 12.4304 10.2685 14.0574 8.00145C12.4305 5.73639 10.6213 4.93424 8.69163 5.22853C7.16335 5.46161 5.48198 6.39054 3.68458 8.00343Z"
    fill="currentColor" />
  <path fill-rule="evenodd" clip-rule="evenodd"
    d="M12 6.83333C12.2761 6.83333 12.5 7.05719 12.5 7.33333V7.34C12.5 7.61614 12.2761 7.84 12 7.84C11.7239 7.84 11.5 7.61614 11.5 7.34V7.33333C11.5 7.05719 11.7239 6.83333 12 6.83333Z"
    fill="currentColor" />
  <path fill-rule="evenodd" clip-rule="evenodd"
    d="M7.94411 6.58404C8.17384 6.73727 8.23586 7.04772 8.08263 7.27745C7.90386 7.54546 7.83317 7.78388 7.83317 8C7.83317 8.21612 7.90386 8.45454 8.08263 8.72255C8.23586 8.95228 8.17384 9.26273 7.94411 9.41596C7.71438 9.56919 7.40393 9.50717 7.25071 9.27745C6.98481 8.8788 6.83317 8.45055 6.83317 8C6.83317 7.54945 6.98481 7.1212 7.25071 6.72255C7.40393 6.49282 7.71438 6.43081 7.94411 6.58404Z"
    fill="currentColor" />
</svg>