<svg width="16" height="16" viewBox="0 0 16 16" fill="none" xmlns="http://www.w3.org/2000/svg">
  <path
    d="M2.41861 8.77737C7.42635 13.4745 11.9612 13.8682 15.4419 8.71883C11.9612 3.57348 7.42635 3.96821 2.41861 8.66494V8.77737Z"
    fill="currentColor" fill-opacity="0.25" />
  <path fill-rule="evenodd" clip-rule="evenodd"
    d="M11.8545 4.45946C12.0881 4.66064 12.1143 5.01306 11.9131 5.24661C11.1877 6.0887 10.7893 7.16362 10.7907 8.2751C10.7907 9.43635 11.2156 10.4979 11.9193 11.3126C12.1208 11.5459 12.0951 11.8984 11.8618 12.0999C11.6285 12.3014 11.276 12.2756 11.0745 12.0423C10.2022 11.0324 9.67451 9.71497 9.67442 8.27618C9.67275 6.89691 10.1671 5.56303 11.0674 4.51804C11.2686 4.28449 11.621 4.25827 11.8545 4.45946Z"
    fill="currentColor" />
  <path fill-rule="evenodd" clip-rule="evenodd"
    d="M8.60376 4.07856C11.3929 3.6532 13.869 4.95607 15.9042 7.96457C16.0319 8.15341 16.0319 8.40097 15.9043 8.58986C13.8693 11.6005 11.3932 12.9049 8.6039 12.4802C6.58985 12.1736 4.49692 10.9739 2.3668 9.04701C1.90882 9.49713 1.44459 9.98563 0.974593 10.5123C0.769361 10.7423 0.416538 10.7624 0.18654 10.5572C-0.0434582 10.352 -0.0635351 9.99913 0.141697 9.76913C0.614081 9.23974 1.08537 8.74265 1.55511 8.27961C1.08536 7.81651 0.614065 7.31936 0.141675 6.7899C-0.0635433 6.55989 -0.043446 6.20707 0.186564 6.00185C0.416574 5.79663 0.769396 5.81673 0.974615 6.04674C1.44462 6.57352 1.90885 7.06207 2.36683 7.51223C4.49693 5.5855 6.5898 4.3857 8.60376 4.07856ZM3.18279 8.27964C5.18918 10.0802 7.06601 11.117 8.77192 11.3767C10.9259 11.7046 12.9455 10.8081 14.7617 8.27742C12.9457 5.74899 10.9261 4.85357 8.77206 5.18208C7.06607 5.44225 5.18919 6.4792 3.18279 8.27964Z"
    fill="currentColor" />
  <path fill-rule="evenodd" clip-rule="evenodd"
    d="M12.4651 6.97348C12.7734 6.97348 13.0233 7.22337 13.0233 7.53162V7.53907C13.0233 7.84732 12.7734 8.0972 12.4651 8.0972C12.1569 8.0972 11.907 7.84732 11.907 7.53907V7.53162C11.907 7.22337 12.1569 6.97348 12.4651 6.97348Z"
    fill="currentColor" />
  <path fill-rule="evenodd" clip-rule="evenodd"
    d="M7.93762 6.6952C8.19406 6.86625 8.26328 7.2128 8.09224 7.46924C7.89268 7.76842 7.81377 8.03456 7.81377 8.27581C7.81377 8.51706 7.89268 8.7832 8.09224 9.08238C8.26328 9.33882 8.19406 9.68537 7.93762 9.85642C7.68117 10.0275 7.33463 9.95824 7.16358 9.70179C6.86676 9.25679 6.69749 8.77875 6.69749 8.27581C6.69749 7.77287 6.86676 7.29483 7.16358 6.84982C7.33463 6.59338 7.68117 6.52416 7.93762 6.6952Z"
    fill="currentColor" />
</svg>