<svg width="16" height="16" viewBox="0 0 16 16" fill="none" xmlns="http://www.w3.org/2000/svg">
  <path
    d="M8 1.99999C8.088 1.99999 8.17533 1.99999 8.262 1.99999C7.40556 2.7958 6.85506 3.86656 6.70619 5.02614C6.55732 6.18572 6.8195 7.36081 7.44716 8.34715C8.07481 9.33348 9.02824 10.0687 10.1417 10.425C11.2552 10.7813 12.4584 10.7361 13.542 10.2973C13.1252 11.3003 12.4439 12.1713 11.5708 12.8175C10.6977 13.4637 9.66563 13.8607 8.5846 13.9663C7.50358 14.0718 6.41417 13.882 5.43259 13.4169C4.45101 12.9519 3.61407 12.2291 3.01106 11.3257C2.40804 10.4223 2.06157 9.37218 2.00859 8.28731C1.95561 7.20243 2.19812 6.12352 2.71025 5.16567C3.22237 4.20781 3.98491 3.40694 4.91651 2.84848C5.84811 2.29002 6.91383 1.99492 8 1.99466V1.99999Z"
    fill="currentColor" fill-opacity="0.25" />
  <path fill-rule="evenodd" clip-rule="evenodd"
    d="M7.1204 2.56568C6.43485 2.67694 5.77385 2.9175 5.17359 3.27733C4.31962 3.78925 3.62063 4.52338 3.15118 5.40142C2.68173 6.27945 2.45943 7.26845 2.508 8.26292C2.55656 9.25739 2.87416 10.22 3.42693 11.0481C3.97969 11.8763 4.74688 12.5388 5.64667 12.9651C6.54645 13.3914 7.54507 13.5654 8.53601 13.4686C9.52695 13.3719 10.473 13.0079 11.2733 12.4156C11.7711 12.0472 12.2008 11.5991 12.5465 11.0918C11.6966 11.2297 10.8203 11.1671 9.98936 10.9012C8.76452 10.5093 7.71574 9.70055 7.02533 8.61558C6.33491 7.53061 6.04651 6.23802 6.21027 4.96247C6.32134 4.09729 6.63566 3.27707 7.1204 2.56568ZM8.07285 1.49999C8.04883 1.49646 8.02445 1.49465 7.99988 1.49466C6.8232 1.49494 5.66867 1.81464 4.65943 2.41963C3.6502 3.02463 2.82412 3.89224 2.26932 4.92992C1.71451 5.9676 1.4518 7.13641 1.50919 8.31169C1.56658 9.48697 1.94193 10.6246 2.5952 11.6033C3.24846 12.582 4.15514 13.365 5.21852 13.8688C6.2819 14.3726 7.46209 14.5783 8.6332 14.4639C9.80431 14.3495 10.9224 13.9194 11.8682 13.2194C12.8141 12.5194 13.5521 11.5758 14.0037 10.4892C14.0811 10.303 14.0391 10.0886 13.8972 9.9454C13.7553 9.80218 13.5412 9.75821 13.3544 9.83388C12.3791 10.2288 11.2963 10.2694 10.2941 9.94876C9.29197 9.6281 8.43388 8.96641 7.86899 8.07871C7.30411 7.19101 7.06814 6.13343 7.20213 5.08981C7.33611 4.04618 7.83156 3.0825 8.60235 2.36627C8.75295 2.22634 8.80255 2.00849 8.72738 1.81716C8.6522 1.62582 8.46758 1.49999 8.262 1.49999H8.07285Z"
    fill="currentColor" />
  <path
    d="M11.3333 2.66667C11.3333 3.02029 11.4738 3.35943 11.7239 3.60948C11.9739 3.85952 12.313 4 12.6667 4C12.313 4 11.9739 4.14048 11.7239 4.39052C11.4738 4.64057 11.3333 4.97971 11.3333 5.33333C11.3333 4.97971 11.1929 4.64057 10.9428 4.39052C10.6928 4.14048 10.3536 4 10 4C10.3536 4 10.6928 3.85952 10.9428 3.60948C11.1929 3.35943 11.3333 3.02029 11.3333 2.66667Z"
    fill="currentColor" />
  <path d="M12.6667 7.33333H14ZM13.3333 6.66667V8Z" fill="currentColor" />
  <path fill-rule="evenodd" clip-rule="evenodd"
    d="M11.3333 2.16667C11.6095 2.16667 11.8333 2.39052 11.8333 2.66667C11.8333 2.88768 11.9211 3.09964 12.0774 3.25592C12.2337 3.4122 12.4457 3.5 12.6667 3.5C12.9428 3.5 13.1667 3.72386 13.1667 4C13.1667 4.27614 12.9428 4.5 12.6667 4.5C12.4457 4.5 12.2337 4.5878 12.0774 4.74408C11.9211 4.90036 11.8333 5.11232 11.8333 5.33333C11.8333 5.60948 11.6095 5.83333 11.3333 5.83333C11.0572 5.83333 10.8333 5.60948 10.8333 5.33333C10.8333 5.11232 10.7455 4.90036 10.5893 4.74408C10.433 4.5878 10.221 4.5 10 4.5C9.72386 4.5 9.5 4.27614 9.5 4C9.5 3.72386 9.72386 3.5 10 3.5C10.221 3.5 10.433 3.4122 10.5893 3.25592C10.7455 3.09964 10.8333 2.88768 10.8333 2.66667C10.8333 2.39052 11.0572 2.16667 11.3333 2.16667ZM13.3333 6.16667C13.6095 6.16667 13.8333 6.39052 13.8333 6.66667V6.83333H14C14.2761 6.83333 14.5 7.05719 14.5 7.33333C14.5 7.60948 14.2761 7.83333 14 7.83333H13.8333V8C13.8333 8.27614 13.6095 8.5 13.3333 8.5C13.0572 8.5 12.8333 8.27614 12.8333 8V7.83333H12.6667C12.3905 7.83333 12.1667 7.60948 12.1667 7.33333C12.1667 7.05719 12.3905 6.83333 12.6667 6.83333H12.8333V6.66667C12.8333 6.39052 13.0572 6.16667 13.3333 6.16667Z"
    fill="currentColor" />
</svg>