<svg width="16" height="16" viewBox="0 0 16 16" fill="none" xmlns="http://www.w3.org/2000/svg">
  <path
    d="M8 6.66667C8 5.60581 7.57857 4.58839 6.82843 3.83824C6.07828 3.0881 5.06087 2.66667 4 2.66667H2V4.00001C2 5.06087 2.42143 6.07829 3.17157 6.82843C3.92172 7.57858 4.93913 8.00001 6 8.00001H8"
    fill="currentColor" fill-opacity="0.25" />
  <path
    d="M8 9.33333C8 8.27246 8.42143 7.25505 9.17157 6.5049C9.92172 5.75476 10.9391 5.33333 12 5.33333H14V5.99999C14 7.06086 13.5786 8.07828 12.8284 8.82842C12.0783 9.57857 11.0609 9.99999 10 9.99999H8"
    fill="currentColor" fill-opacity="0.25" />
  <path
    d="M8 6.66667C8 5.60581 7.57857 4.58839 6.82843 3.83824C6.07828 3.0881 5.06087 2.66667 4 2.66667H2V4.00001C2 5.06087 2.42143 6.07829 3.17157 6.82843C3.92172 7.57858 4.93913 8.00001 6 8.00001H8M8 9.33333C8 8.27246 8.42143 7.25505 9.17157 6.5049C9.92172 5.75476 10.9391 5.33333 12 5.33333H14V5.99999C14 7.06086 13.5786 8.07828 12.8284 8.82842C12.0783 9.57857 11.0609 9.99999 10 9.99999H8"
    stroke="currentColor" stroke-linecap="round" stroke-linejoin="round" />
  <path fill-rule="evenodd" clip-rule="evenodd"
    d="M1.5 2.66667C1.5 2.39053 1.72386 2.16667 2 2.16667H4C5.19347 2.16667 6.33807 2.64078 7.18198 3.48469C7.9885 4.29121 8.45726 5.37236 8.49722 6.50834C8.59726 6.38429 8.70428 6.26509 8.81802 6.15136C9.66193 5.30744 10.8065 4.83334 12 4.83334H14C14.2761 4.83334 14.5 5.0572 14.5 5.33334V6.00001C14.5 7.19348 14.0259 8.33807 13.182 9.18199C12.3381 10.0259 11.1935 10.5 10 10.5H8.5V13.3333C8.5 13.6095 8.27614 13.8333 8 13.8333C7.72386 13.8333 7.5 13.6095 7.5 13.3333V8.50001H6C4.80653 8.50001 3.66193 8.0259 2.81802 7.18199C1.97411 6.33807 1.5 5.19348 1.5 4.00001V2.66667ZM8.5 9.5V9.33334C8.5 8.40508 8.86875 7.51484 9.52513 6.85846C10.1815 6.20209 11.0717 5.83334 12 5.83334H13.5V6.00001C13.5 6.92826 13.1313 7.8185 12.4749 8.47488C11.8185 9.13126 10.9283 9.5 10 9.5H8.5ZM7.5 7.50001H6C5.07174 7.50001 4.1815 7.13126 3.52513 6.47488C2.86875 5.8185 2.5 4.92826 2.5 4.00001V3.16667H4C4.92826 3.16667 5.8185 3.53542 6.47487 4.1918C7.13125 4.84818 7.5 5.73841 7.5 6.66667V7.50001Z"
    fill="currentColor" />
</svg>