<svg width="16" height="16" viewBox="0 0 16 16" fill="none" xmlns="http://www.w3.org/2000/svg">
  <path
    d="M8 12.6667C8.16329 12.6667 8.3209 12.7266 8.44292 12.8351C8.56494 12.9436 8.6429 13.0932 8.662 13.2553L8.66667 13.3333V14C8.66648 14.1699 8.60142 14.3333 8.48477 14.4569C8.36813 14.5805 8.2087 14.6548 8.03907 14.6648C7.86945 14.6747 7.70242 14.6195 7.57212 14.5105C7.44181 14.4014 7.35807 14.2467 7.338 14.078L7.33334 14V13.3333C7.33334 13.1565 7.40358 12.9869 7.5286 12.8619C7.65362 12.7369 7.82319 12.6667 8 12.6667Z"
    fill="currentColor" fill-opacity="0.25" />
  <path
    d="M12.2087 11.2733L12.2713 11.3287L12.738 11.7953C12.8576 11.9153 12.927 12.0763 12.9322 12.2456C12.9373 12.4149 12.8779 12.5798 12.7658 12.7068C12.6538 12.8339 12.4976 12.9135 12.329 12.9296C12.1604 12.9457 11.992 12.8969 11.858 12.7933L11.7953 12.738L11.3287 12.2713C11.2136 12.1565 11.1445 12.0036 11.1343 11.8413C11.1241 11.6791 11.1735 11.5187 11.2733 11.3904C11.3731 11.262 11.5163 11.1746 11.676 11.1444C11.8357 11.1143 12.001 11.1435 12.1407 11.2267L12.2087 11.2733Z"
    fill="currentColor" fill-opacity="0.25" />
  <path
    d="M4.67134 11.3287C4.78612 11.4435 4.85508 11.5962 4.86526 11.7582C4.87545 11.9202 4.82617 12.0804 4.72667 12.2087L4.67134 12.2713L4.20467 12.738C4.0847 12.8576 3.92371 12.927 3.75441 12.9321C3.58512 12.9373 3.4202 12.8779 3.29315 12.7658C3.16611 12.6538 3.08647 12.4976 3.0704 12.329C3.05434 12.1604 3.10306 11.992 3.20667 11.858L3.262 11.7953L3.72867 11.3287C3.85369 11.2037 4.02323 11.1335 4.2 11.1335C4.37678 11.1335 4.54632 11.2037 4.67134 11.3287Z"
    fill="currentColor" fill-opacity="0.25" />
  <path
    d="M2.66667 7.33333C2.83659 7.33352 3.00003 7.39858 3.12358 7.51523C3.24714 7.63187 3.32149 7.7913 3.33145 7.96093C3.34141 8.13055 3.28622 8.29758 3.17716 8.42788C3.0681 8.55819 2.9134 8.64193 2.74467 8.66199L2.66667 8.66666H2C1.83008 8.66647 1.66665 8.60141 1.54309 8.48476C1.41953 8.36812 1.34518 8.20869 1.33522 8.03907C1.32526 7.86944 1.38045 7.70241 1.48951 7.57211C1.59857 7.4418 1.75327 7.35806 1.922 7.338L2 7.33333H2.66667Z"
    fill="currentColor" fill-opacity="0.25" />
  <path
    d="M14 7.33333C14.1699 7.33352 14.3334 7.39858 14.4569 7.51523C14.5805 7.63187 14.6548 7.7913 14.6648 7.96093C14.6747 8.13055 14.6196 8.29758 14.5105 8.42788C14.4014 8.55819 14.2467 8.64193 14.078 8.66199L14 8.66666H13.3333C13.1634 8.66647 13 8.60141 12.8764 8.48476C12.7529 8.36812 12.6785 8.20869 12.6686 8.03907C12.6586 7.86944 12.7138 7.70241 12.8228 7.57211C12.9319 7.4418 13.0866 7.35806 13.2553 7.338L13.3333 7.33333H14Z"
    fill="currentColor" fill-opacity="0.25" />
  <path
    d="M4.142 3.20666L4.20467 3.26199L4.67134 3.72866C4.7909 3.84863 4.86032 4.00962 4.86549 4.17892C4.87066 4.34822 4.81119 4.51314 4.69917 4.64018C4.58715 4.76722 4.43097 4.84687 4.26235 4.86293C4.09374 4.87899 3.92533 4.83027 3.79134 4.72666L3.72867 4.67133L3.262 4.20466C3.1474 4.08978 3.07863 3.93704 3.06858 3.77508C3.05854 3.61312 3.10791 3.45306 3.20745 3.3249C3.30698 3.19674 3.44984 3.10928 3.60925 3.07892C3.76866 3.04856 3.93366 3.07739 4.07334 3.15999L4.142 3.20666Z"
    fill="currentColor" fill-opacity="0.25" />
  <path
    d="M12.738 3.26199C12.8528 3.37679 12.9217 3.52952 12.9319 3.69154C12.9421 3.85356 12.8928 4.01373 12.7933 4.14199L12.738 4.20466L12.2713 4.67133C12.1514 4.79089 11.9904 4.86031 11.8211 4.86548C11.6518 4.87065 11.4869 4.81118 11.3598 4.69916C11.2328 4.58714 11.1531 4.43096 11.1371 4.26235C11.121 4.09373 11.1697 3.92532 11.2733 3.79133L11.3287 3.72866L11.7953 3.26199C11.9204 3.13701 12.0899 3.0668 12.2667 3.0668C12.4434 3.0668 12.613 3.13701 12.738 3.26199Z"
    fill="currentColor" fill-opacity="0.25" />
  <path
    d="M8 1.33333C8.16329 1.33335 8.3209 1.3933 8.44292 1.50181C8.56494 1.61031 8.6429 1.75983 8.662 1.92199L8.66667 1.99999V2.66666C8.66648 2.83658 8.60142 3.00002 8.48477 3.12357C8.36813 3.24713 8.2087 3.32148 8.03907 3.33144C7.86945 3.3414 7.70242 3.28621 7.57212 3.17715C7.44181 3.06809 7.35807 2.91339 7.338 2.74466L7.33334 2.66666V1.99999C7.33334 1.82318 7.40358 1.65361 7.5286 1.52859C7.65362 1.40357 7.82319 1.33333 8 1.33333Z"
    fill="currentColor" fill-opacity="0.25" />
  <path
    d="M8 4.66667C8.65312 4.66663 9.29186 4.85846 9.83688 5.21834C10.3819 5.57821 10.8092 6.09027 11.0657 6.69091C11.3222 7.29156 11.3966 7.95432 11.2796 8.59688C11.1627 9.23944 10.8596 9.83349 10.4079 10.3052C9.95621 10.777 9.37589 11.1057 8.73902 11.2504C8.10215 11.3952 7.43678 11.3497 6.82555 11.1195C6.21433 10.8894 5.68419 10.4847 5.30097 9.95585C4.91775 9.42697 4.69834 8.79717 4.67 8.14467L4.66666 8.00001L4.67 7.85534C4.70728 6.99717 5.0744 6.18652 5.69481 5.59244C6.31522 4.99837 7.14102 4.66672 8 4.66667Z"
    fill="currentColor" />
</svg>