<svg width="32" height="32" viewBox="0 0 32 32" fill="none" xmlns="http://www.w3.org/2000/svg">
  <circle cx="16" cy="16" r="16" fill="currentColor" fill-opacity="0.25" />
  <path
    d="M21.3318 31.0901C23.0004 26.9676 24 21.7173 24 16C24 10.2827 23.0004 5.0324 21.3318 0.909873C19.664 0.320621 17.8695 0 16 0C7.16344 0 0 7.16344 0 16C0 24.8366 7.16344 32 16 32C17.8695 32 19.664 31.6794 21.3318 31.0901Z"
    fill="currentColor" />
  <path fill-rule="evenodd" clip-rule="evenodd"
    d="M16 31C24.2843 31 31 24.2843 31 16C31 7.71573 24.2843 1 16 1C7.71573 1 1 7.71573 1 16C1 24.2843 7.71573 31 16 31ZM16 32C24.8366 32 32 24.8366 32 16C32 7.16344 24.8366 0 16 0C7.16344 0 0 7.16344 0 16C0 24.8366 7.16344 32 16 32Z"
    fill="currentColor" />
</svg>