<svg width="32" height="32" viewBox="0 0 32 32" fill="none" xmlns="http://www.w3.org/2000/svg">
  <circle cx="16" cy="16" r="16" fill="currentColor" fill-opacity="0.25" />
  <path
    d="M16.5161 0.00816704C25.1138 0.280633 32 7.33614 32 16C32 24.6639 25.1138 31.7194 16.5161 31.9918C8.4558 31.7194 2 24.6639 2 16C2 7.33614 8.4558 0.280637 16.5161 0.00816704Z"
    fill="currentColor" />
  <path fill-rule="evenodd" clip-rule="evenodd"
    d="M16 31C24.2843 31 31 24.2843 31 16C31 7.71573 24.2843 1 16 1C7.71573 1 1 7.71573 1 16C1 24.2843 7.71573 31 16 31ZM16 32C24.8366 32 32 24.8366 32 16C32 7.16344 24.8366 0 16 0C7.16344 0 0 7.16344 0 16C0 24.8366 7.16344 32 16 32Z"
    fill="currentColor" />
</svg>