<svg width="32" height="32" viewBox="0 0 32 32" fill="none" xmlns="http://www.w3.org/2000/svg">
  <circle cx="16" cy="16" r="16" fill="currentColor" fill-opacity="0.25" />
  <path
    d="M16 32C24.8366 32 32 24.8366 32 16C32 7.16344 24.8366 0 16 0C15.6416 0 15.2859 0.011786 14.9333 0.0349915C22.2302 0.583883 28 7.52187 28 16C28 24.4781 22.2302 31.4161 14.9333 31.965C15.2859 31.9882 15.6416 32 16 32Z"
    fill="currentColor" />
  <path fill-rule="evenodd" clip-rule="evenodd"
    d="M16 31C24.2843 31 31 24.2843 31 16C31 7.71573 24.2843 1 16 1C7.71573 1 1 7.71573 1 16C1 24.2843 7.71573 31 16 31ZM16 32C24.8366 32 32 24.8366 32 16C32 7.16344 24.8366 0 16 0C7.16344 0 0 7.16344 0 16C0 24.8366 7.16344 32 16 32Z"
    fill="currentColor" />
</svg>