<svg width="32" height="32" viewBox="0 0 32 32" fill="none" xmlns="http://www.w3.org/2000/svg">
  <circle cx="16" cy="16" r="16" fill="currentColor" fill-opacity="0.25" />
  <path
    d="M10.6682 0.909872C12.336 0.32062 14.1305 0 16 0C24.8366 0 32 7.16344 32 16C32 24.8366 24.8366 32 16 32C14.1305 32 12.336 31.6794 10.6682 31.0901C8.99956 26.9676 8 21.7173 8 16C8 10.2827 8.99956 5.0324 10.6682 0.909872Z"
    fill="currentColor" />
  <path fill-rule="evenodd" clip-rule="evenodd"
    d="M16 31C24.2843 31 31 24.2843 31 16C31 7.71573 24.2843 1 16 1C7.71573 1 1 7.71573 1 16C1 24.2843 7.71573 31 16 31ZM16 32C24.8366 32 32 24.8366 32 16C32 7.16344 24.8366 0 16 0C7.16344 0 0 7.16344 0 16C0 24.8366 7.16344 32 16 32Z"
    fill="currentColor" />
</svg>