<svg width="32" height="32" viewBox="0 0 32 32" fill="none" xmlns="http://www.w3.org/2000/svg">
  <circle cx="16" cy="16" r="16" fill="currentColor" fill-opacity="0.25" />
  <path
    d="M16 32C24.8366 32 32 24.8366 32 16C32 7.16344 24.8366 0 16 0C14.7292 0 13.493 0.148157 12.3077 0.42814C16.718 2.095 20 8.43426 20 16C20 23.5657 16.718 29.905 12.3077 31.5719C13.493 31.8518 14.7292 32 16 32Z"
    fill="currentColor" />
  <path fill-rule="evenodd" clip-rule="evenodd"
    d="M16 31C24.2843 31 31 24.2843 31 16C31 7.71573 24.2843 1 16 1C7.71573 1 1 7.71573 1 16C1 24.2843 7.71573 31 16 31ZM16 32C24.8366 32 32 24.8366 32 16C32 7.16344 24.8366 0 16 0C7.16344 0 0 7.16344 0 16C0 24.8366 7.16344 32 16 32Z"
    fill="currentColor" />
</svg>