<svg width="32" height="32" viewBox="0 0 32 32" fill="none" xmlns="http://www.w3.org/2000/svg">
  <circle cx="16" cy="16" r="16" fill="currentColor" fill-opacity="0.25" />
  <path
    d="M13.9996 31.8762C15.2446 27.6452 16 22.0873 16 16C16 9.91274 15.2446 4.35478 13.9996 0.123832C14.6549 0.042102 15.3226 0 16 0C24.8366 0 32 7.16344 32 16C32 24.8366 24.8366 32 16 32C15.3226 32 14.6549 31.9579 13.9996 31.8762Z"
    fill="currentColor" />
  <path fill-rule="evenodd" clip-rule="evenodd"
    d="M16 31C24.2843 31 31 24.2843 31 16C31 7.71573 24.2843 1 16 1C7.71573 1 1 7.71573 1 16C1 24.2843 7.71573 31 16 31ZM16 32C24.8366 32 32 24.8366 32 16C32 7.16344 24.8366 0 16 0C7.16344 0 0 7.16344 0 16C0 24.8366 7.16344 32 16 32Z"
    fill="currentColor" />
</svg>